<svg width="44" height="45" viewBox="0 0 44 45" fill="none" xmlns="http://www.w3.org/2000/svg">
<mask id="path-1-outside-1_1_7" maskUnits="userSpaceOnUse" x="0" y="0.25" width="44" height="44" fill="black">
<rect fill="white" y="0.25" width="44" height="44"/>
<path d="M42 22.3333C42 33.4251 33.0457 42.4167 22 42.4167C10.9543 42.4167 2 33.4251 2 22.3333C2 11.2416 10.9543 2.25 22 2.25C33.0457 2.25 42 11.2416 42 22.3333Z"/>
<path d="M11.5999 31.7719C11.5999 31.9978 11.6416 32.207 11.7249 32.3995C11.8083 32.5919 11.9207 32.7593 12.0624 32.9016C12.2041 33.0438 12.3749 33.1609 12.5749 33.253C12.7749 33.345 12.9832 33.3869 13.1999 33.3785H21.1995V34.9851H13.1999C12.7582 34.9851 12.3457 34.9014 11.9624 34.7341C11.5791 34.5667 11.2374 34.3366 10.9375 34.0437C10.6375 33.7509 10.4083 33.412 10.25 33.0271C10.0917 32.6422 10.0083 32.2238 10 31.7719V15.7059H13.1999V14.0993C13.1999 13.4383 13.3249 12.8149 13.5748 12.2292C13.8248 11.6434 14.1665 11.133 14.5998 10.6979C15.0331 10.2628 15.5414 9.9155 16.1247 9.65611C16.708 9.39671 17.333 9.27119 17.9997 9.27956C18.8663 9.27956 19.6704 9.49712 20.412 9.93224C21.1537 9.49712 21.9495 9.27956 22.7994 9.27956C23.4577 9.27956 24.0786 9.40507 24.6619 9.65611C25.2452 9.90714 25.7535 10.2502 26.1868 10.6853C26.6201 11.1205 26.9659 11.6351 27.2243 12.2292C27.4826 12.8233 27.6076 13.4467 27.5992 14.0993V15.7059H30.7991V17.3125H11.5999V31.7719ZM25.9993 14.0993C25.9993 13.6559 25.916 13.2417 25.7493 12.8567C25.5827 12.4718 25.3535 12.1288 25.0618 11.8275C24.7702 11.5263 24.4327 11.2962 24.0494 11.1372C23.6661 10.9782 23.2494 10.8945 22.7994 10.8862C22.4245 10.8862 22.0703 10.9489 21.737 11.0744C21.9786 11.3757 22.1703 11.6727 22.312 11.9656C22.4536 12.2585 22.5578 12.5513 22.6245 12.8442C22.6911 13.1371 22.7369 13.4341 22.7619 13.7354C22.7869 14.0366 22.7994 14.3587 22.7994 14.7018V15.7059H25.9993V14.0993ZM14.7998 15.7059H21.1995V14.0993C21.1995 13.6559 21.1162 13.2417 20.9495 12.8567C20.7829 12.4718 20.5537 12.1288 20.2621 11.8275C19.9704 11.5263 19.6329 11.2962 19.2496 11.1372C18.8663 10.9782 18.4496 10.8945 17.9997 10.8862C17.558 10.8862 17.1455 10.9698 16.7622 11.1372C16.3789 11.3045 16.0372 11.5347 15.7373 11.8275C15.4373 12.1204 15.2081 12.4593 15.0498 12.8442C14.8915 13.2291 14.8081 13.6475 14.7998 14.0993V15.7059ZM32.399 18.9191C32.624 18.9191 32.8323 18.961 33.024 19.0447C33.2157 19.1283 33.3823 19.2413 33.524 19.3835C33.6656 19.5258 33.7823 19.6973 33.874 19.8982C33.9656 20.099 34.0073 20.3082 33.999 20.5257V34.9851H22.7994V20.5257C22.7994 20.2998 22.8411 20.0906 22.9244 19.8982C23.0078 19.7057 23.1203 19.5383 23.2619 19.3961C23.4036 19.2538 23.5744 19.1367 23.7744 19.0447C23.9744 18.9526 24.1827 18.9108 24.3994 18.9191H32.399ZM32.399 20.5257H24.3994V33.3785H32.399V20.5257ZM30.7991 31.7719H25.9993V30.1653H30.7991V31.7719ZM30.7991 28.5587H25.9993V26.9521H30.7991V28.5587ZM30.7991 23.7389H25.9993V22.1323H30.7991V23.7389Z"/>
<path d="M16.8196 31.7922C17.1425 34.6009 17.4559 37.3378 17.7704 40.0724C18.8851 40.0724 19.9543 40.0724 21.0223 40.0724C21.0223 37.2661 21.0223 34.4988 21.0223 31.6731C20.587 31.9283 20.1708 32.124 19.8096 32.3938C19.1422 32.8909 18.5155 32.9116 17.8482 32.4011C17.5504 32.1738 17.2035 32.0158 16.8196 31.7922ZM26.2225 40.093C26.5394 37.3281 26.8528 34.5948 27.1745 31.7886C26.6973 32.0693 26.2823 32.2881 25.8948 32.547C25.3996 32.8775 24.9368 32.8654 24.4429 32.5409C23.9788 32.2358 23.4873 31.9721 22.9778 31.6731C22.9778 34.5158 22.9778 37.2965 22.9778 40.093C24.0601 40.093 25.1114 40.093 26.2225 40.093ZM15.8485 40.11C15.5196 37.2394 15.1967 34.4271 14.8678 31.5577C14.2446 31.9247 13.6598 32.2601 13.0833 32.6114C12.6743 32.8593 12.2796 32.8666 11.8718 32.6138C11.519 32.3963 11.1578 32.1921 10.7571 31.9575C10.7763 32.073 10.7846 32.135 10.7978 32.1969C11.3157 34.4599 11.8323 36.7229 12.3538 38.9859C12.4363 39.3444 12.4291 39.8415 12.6564 40.0165C12.9015 40.2061 13.3728 40.104 13.7447 40.1088C14.4288 40.1161 15.1141 40.11 15.8485 40.11ZM29.1264 31.5552C28.7975 34.432 28.4745 37.2467 28.1468 40.1076C29.2041 40.1076 30.2027 40.1161 31.2014 40.093C31.2899 40.0906 31.4227 39.901 31.4514 39.7783C31.852 38.0841 32.2383 36.3862 32.627 34.6884C32.8315 33.7963 33.0361 32.9031 33.2561 31.9405C32.8507 32.1799 32.5086 32.3683 32.1797 32.5798C31.7372 32.8654 31.3126 32.8629 30.8641 32.5834C30.3128 32.2407 29.7459 31.9211 29.1264 31.5552ZM10.6471 40.1088C9.97854 37.1993 9.32554 34.3554 8.66296 31.4714C7.96928 31.8797 7.32823 32.2516 6.69196 32.6332C6.30805 32.8642 5.9349 32.8666 5.55218 32.6296C5.30461 32.4752 5.04628 32.3379 4.71738 32.1483C4.87166 32.598 4.99366 32.9565 5.11684 33.3138C5.85357 35.4553 6.58552 37.5979 7.33302 39.7357C7.38325 39.8803 7.53992 40.0882 7.65234 40.0918C8.62468 40.121 9.59822 40.1088 10.6471 40.1088ZM33.3482 40.11C34.3193 40.11 35.2271 40.093 36.1325 40.1186C36.453 40.1271 36.5834 40.0128 36.6826 39.7175C37.4887 37.3354 38.3116 34.9594 39.1272 32.5798C39.1679 32.4619 39.2002 32.3428 39.2576 32.152C39.0339 32.2808 38.8653 32.3549 38.7242 32.4643C38.1477 32.9116 37.5976 32.8763 37.0055 32.4667C36.4853 32.107 35.9184 31.8165 35.33 31.4702C34.665 34.37 34.012 37.2127 33.3482 40.11Z"/>
</mask>
<path d="M42 22.3333C42 33.4251 33.0457 42.4167 22 42.4167C10.9543 42.4167 2 33.4251 2 22.3333C2 11.2416 10.9543 2.25 22 2.25C33.0457 2.25 42 11.2416 42 22.3333Z" fill="#F4F0EF"/>
<path d="M11.5999 31.7719C11.5999 31.9978 11.6416 32.207 11.7249 32.3995C11.8083 32.5919 11.9207 32.7593 12.0624 32.9016C12.2041 33.0438 12.3749 33.1609 12.5749 33.253C12.7749 33.345 12.9832 33.3869 13.1999 33.3785H21.1995V34.9851H13.1999C12.7582 34.9851 12.3457 34.9014 11.9624 34.7341C11.5791 34.5667 11.2374 34.3366 10.9375 34.0437C10.6375 33.7509 10.4083 33.412 10.25 33.0271C10.0917 32.6422 10.0083 32.2238 10 31.7719V15.7059H13.1999V14.0993C13.1999 13.4383 13.3249 12.8149 13.5748 12.2292C13.8248 11.6434 14.1665 11.133 14.5998 10.6979C15.0331 10.2628 15.5414 9.9155 16.1247 9.65611C16.708 9.39671 17.333 9.27119 17.9997 9.27956C18.8663 9.27956 19.6704 9.49712 20.412 9.93224C21.1537 9.49712 21.9495 9.27956 22.7994 9.27956C23.4577 9.27956 24.0786 9.40507 24.6619 9.65611C25.2452 9.90714 25.7535 10.2502 26.1868 10.6853C26.6201 11.1205 26.9659 11.6351 27.2243 12.2292C27.4826 12.8233 27.6076 13.4467 27.5992 14.0993V15.7059H30.7991V17.3125H11.5999V31.7719ZM25.9993 14.0993C25.9993 13.6559 25.916 13.2417 25.7493 12.8567C25.5827 12.4718 25.3535 12.1288 25.0618 11.8275C24.7702 11.5263 24.4327 11.2962 24.0494 11.1372C23.6661 10.9782 23.2494 10.8945 22.7994 10.8862C22.4245 10.8862 22.0703 10.9489 21.737 11.0744C21.9786 11.3757 22.1703 11.6727 22.312 11.9656C22.4536 12.2585 22.5578 12.5513 22.6245 12.8442C22.6911 13.1371 22.7369 13.4341 22.7619 13.7354C22.7869 14.0366 22.7994 14.3587 22.7994 14.7018V15.7059H25.9993V14.0993ZM14.7998 15.7059H21.1995V14.0993C21.1995 13.6559 21.1162 13.2417 20.9495 12.8567C20.7829 12.4718 20.5537 12.1288 20.2621 11.8275C19.9704 11.5263 19.6329 11.2962 19.2496 11.1372C18.8663 10.9782 18.4496 10.8945 17.9997 10.8862C17.558 10.8862 17.1455 10.9698 16.7622 11.1372C16.3789 11.3045 16.0372 11.5347 15.7373 11.8275C15.4373 12.1204 15.2081 12.4593 15.0498 12.8442C14.8915 13.2291 14.8081 13.6475 14.7998 14.0993V15.7059ZM32.399 18.9191C32.624 18.9191 32.8323 18.961 33.024 19.0447C33.2157 19.1283 33.3823 19.2413 33.524 19.3835C33.6656 19.5258 33.7823 19.6973 33.874 19.8982C33.9656 20.099 34.0073 20.3082 33.999 20.5257V34.9851H22.7994V20.5257C22.7994 20.2998 22.8411 20.0906 22.9244 19.8982C23.0078 19.7057 23.1203 19.5383 23.2619 19.3961C23.4036 19.2538 23.5744 19.1367 23.7744 19.0447C23.9744 18.9526 24.1827 18.9108 24.3994 18.9191H32.399ZM32.399 20.5257H24.3994V33.3785H32.399V20.5257ZM30.7991 31.7719H25.9993V30.1653H30.7991V31.7719ZM30.7991 28.5587H25.9993V26.9521H30.7991V28.5587ZM30.7991 23.7389H25.9993V22.1323H30.7991V23.7389Z" fill="#544232"/>
<path d="M16.8196 31.7922C17.1425 34.6009 17.4559 37.3378 17.7704 40.0724C18.8851 40.0724 19.9543 40.0724 21.0223 40.0724C21.0223 37.2661 21.0223 34.4988 21.0223 31.6731C20.587 31.9283 20.1708 32.124 19.8096 32.3938C19.1422 32.8909 18.5155 32.9116 17.8482 32.4011C17.5504 32.1738 17.2035 32.0158 16.8196 31.7922ZM26.2225 40.093C26.5394 37.3281 26.8528 34.5948 27.1745 31.7886C26.6973 32.0693 26.2823 32.2881 25.8948 32.547C25.3996 32.8775 24.9368 32.8654 24.4429 32.5409C23.9788 32.2358 23.4873 31.9721 22.9778 31.6731C22.9778 34.5158 22.9778 37.2965 22.9778 40.093C24.0601 40.093 25.1114 40.093 26.2225 40.093ZM15.8485 40.11C15.5196 37.2394 15.1967 34.4271 14.8678 31.5577C14.2446 31.9247 13.6598 32.2601 13.0833 32.6114C12.6743 32.8593 12.2796 32.8666 11.8718 32.6138C11.519 32.3963 11.1578 32.1921 10.7571 31.9575C10.7763 32.073 10.7846 32.135 10.7978 32.1969C11.3157 34.4599 11.8323 36.7229 12.3538 38.9859C12.4363 39.3444 12.4291 39.8415 12.6564 40.0165C12.9015 40.2061 13.3728 40.104 13.7447 40.1088C14.4288 40.1161 15.1141 40.11 15.8485 40.11ZM29.1264 31.5552C28.7975 34.432 28.4745 37.2467 28.1468 40.1076C29.2041 40.1076 30.2027 40.1161 31.2014 40.093C31.2899 40.0906 31.4227 39.901 31.4514 39.7783C31.852 38.0841 32.2383 36.3862 32.627 34.6884C32.8315 33.7963 33.0361 32.9031 33.2561 31.9405C32.8507 32.1799 32.5086 32.3683 32.1797 32.5798C31.7372 32.8654 31.3126 32.8629 30.8641 32.5834C30.3128 32.2407 29.7459 31.9211 29.1264 31.5552ZM10.6471 40.1088C9.97854 37.1993 9.32554 34.3554 8.66296 31.4714C7.96928 31.8797 7.32823 32.2516 6.69196 32.6332C6.30805 32.8642 5.9349 32.8666 5.55218 32.6296C5.30461 32.4752 5.04628 32.3379 4.71738 32.1483C4.87166 32.598 4.99366 32.9565 5.11684 33.3138C5.85357 35.4553 6.58552 37.5979 7.33302 39.7357C7.38325 39.8803 7.53992 40.0882 7.65234 40.0918C8.62468 40.121 9.59822 40.1088 10.6471 40.1088ZM33.3482 40.11C34.3193 40.11 35.2271 40.093 36.1325 40.1186C36.453 40.1271 36.5834 40.0128 36.6826 39.7175C37.4887 37.3354 38.3116 34.9594 39.1272 32.5798C39.1679 32.4619 39.2002 32.3428 39.2576 32.152C39.0339 32.2808 38.8653 32.3549 38.7242 32.4643C38.1477 32.9116 37.5976 32.8763 37.0055 32.4667C36.4853 32.107 35.9184 31.8165 35.33 31.4702C34.665 34.37 34.012 37.2127 33.3482 40.11Z" fill="#F4F0EF"/>
<path d="M42 22.3333C42 33.4251 33.0457 42.4167 22 42.4167C10.9543 42.4167 2 33.4251 2 22.3333C2 11.2416 10.9543 2.25 22 2.25C33.0457 2.25 42 11.2416 42 22.3333Z" stroke="#503A2C" stroke-width="3.4" mask="url(#path-1-outside-1_1_7)"/>
<path d="M11.5999 31.7719C11.5999 31.9978 11.6416 32.207 11.7249 32.3995C11.8083 32.5919 11.9207 32.7593 12.0624 32.9016C12.2041 33.0438 12.3749 33.1609 12.5749 33.253C12.7749 33.345 12.9832 33.3869 13.1999 33.3785H21.1995V34.9851H13.1999C12.7582 34.9851 12.3457 34.9014 11.9624 34.7341C11.5791 34.5667 11.2374 34.3366 10.9375 34.0437C10.6375 33.7509 10.4083 33.412 10.25 33.0271C10.0917 32.6422 10.0083 32.2238 10 31.7719V15.7059H13.1999V14.0993C13.1999 13.4383 13.3249 12.8149 13.5748 12.2292C13.8248 11.6434 14.1665 11.133 14.5998 10.6979C15.0331 10.2628 15.5414 9.9155 16.1247 9.65611C16.708 9.39671 17.333 9.27119 17.9997 9.27956C18.8663 9.27956 19.6704 9.49712 20.412 9.93224C21.1537 9.49712 21.9495 9.27956 22.7994 9.27956C23.4577 9.27956 24.0786 9.40507 24.6619 9.65611C25.2452 9.90714 25.7535 10.2502 26.1868 10.6853C26.6201 11.1205 26.9659 11.6351 27.2243 12.2292C27.4826 12.8233 27.6076 13.4467 27.5992 14.0993V15.7059H30.7991V17.3125H11.5999V31.7719ZM25.9993 14.0993C25.9993 13.6559 25.916 13.2417 25.7493 12.8567C25.5827 12.4718 25.3535 12.1288 25.0618 11.8275C24.7702 11.5263 24.4327 11.2962 24.0494 11.1372C23.6661 10.9782 23.2494 10.8945 22.7994 10.8862C22.4245 10.8862 22.0703 10.9489 21.737 11.0744C21.9786 11.3757 22.1703 11.6727 22.312 11.9656C22.4536 12.2585 22.5578 12.5513 22.6245 12.8442C22.6911 13.1371 22.7369 13.4341 22.7619 13.7354C22.7869 14.0366 22.7994 14.3587 22.7994 14.7018V15.7059H25.9993V14.0993ZM14.7998 15.7059H21.1995V14.0993C21.1995 13.6559 21.1162 13.2417 20.9495 12.8567C20.7829 12.4718 20.5537 12.1288 20.2621 11.8275C19.9704 11.5263 19.6329 11.2962 19.2496 11.1372C18.8663 10.9782 18.4496 10.8945 17.9997 10.8862C17.558 10.8862 17.1455 10.9698 16.7622 11.1372C16.3789 11.3045 16.0372 11.5347 15.7373 11.8275C15.4373 12.1204 15.2081 12.4593 15.0498 12.8442C14.8915 13.2291 14.8081 13.6475 14.7998 14.0993V15.7059ZM32.399 18.9191C32.624 18.9191 32.8323 18.961 33.024 19.0447C33.2157 19.1283 33.3823 19.2413 33.524 19.3835C33.6656 19.5258 33.7823 19.6973 33.874 19.8982C33.9656 20.099 34.0073 20.3082 33.999 20.5257V34.9851H22.7994V20.5257C22.7994 20.2998 22.8411 20.0906 22.9244 19.8982C23.0078 19.7057 23.1203 19.5383 23.2619 19.3961C23.4036 19.2538 23.5744 19.1367 23.7744 19.0447C23.9744 18.9526 24.1827 18.9108 24.3994 18.9191H32.399ZM32.399 20.5257H24.3994V33.3785H32.399V20.5257ZM30.7991 31.7719H25.9993V30.1653H30.7991V31.7719ZM30.7991 28.5587H25.9993V26.9521H30.7991V28.5587ZM30.7991 23.7389H25.9993V22.1323H30.7991V23.7389Z" stroke="#503A2C" stroke-width="3.4" mask="url(#path-1-outside-1_1_7)"/>
<path d="M16.8196 31.7922C17.1425 34.6009 17.4559 37.3378 17.7704 40.0724C18.8851 40.0724 19.9543 40.0724 21.0223 40.0724C21.0223 37.2661 21.0223 34.4988 21.0223 31.6731C20.587 31.9283 20.1708 32.124 19.8096 32.3938C19.1422 32.8909 18.5155 32.9116 17.8482 32.4011C17.5504 32.1738 17.2035 32.0158 16.8196 31.7922ZM26.2225 40.093C26.5394 37.3281 26.8528 34.5948 27.1745 31.7886C26.6973 32.0693 26.2823 32.2881 25.8948 32.547C25.3996 32.8775 24.9368 32.8654 24.4429 32.5409C23.9788 32.2358 23.4873 31.9721 22.9778 31.6731C22.9778 34.5158 22.9778 37.2965 22.9778 40.093C24.0601 40.093 25.1114 40.093 26.2225 40.093ZM15.8485 40.11C15.5196 37.2394 15.1967 34.4271 14.8678 31.5577C14.2446 31.9247 13.6598 32.2601 13.0833 32.6114C12.6743 32.8593 12.2796 32.8666 11.8718 32.6138C11.519 32.3963 11.1578 32.1921 10.7571 31.9575C10.7763 32.073 10.7846 32.135 10.7978 32.1969C11.3157 34.4599 11.8323 36.7229 12.3538 38.9859C12.4363 39.3444 12.4291 39.8415 12.6564 40.0165C12.9015 40.2061 13.3728 40.104 13.7447 40.1088C14.4288 40.1161 15.1141 40.11 15.8485 40.11ZM29.1264 31.5552C28.7975 34.432 28.4745 37.2467 28.1468 40.1076C29.2041 40.1076 30.2027 40.1161 31.2014 40.093C31.2899 40.0906 31.4227 39.901 31.4514 39.7783C31.852 38.0841 32.2383 36.3862 32.627 34.6884C32.8315 33.7963 33.0361 32.9031 33.2561 31.9405C32.8507 32.1799 32.5086 32.3683 32.1797 32.5798C31.7372 32.8654 31.3126 32.8629 30.8641 32.5834C30.3128 32.2407 29.7459 31.9211 29.1264 31.5552ZM10.6471 40.1088C9.97854 37.1993 9.32554 34.3554 8.66296 31.4714C7.96928 31.8797 7.32823 32.2516 6.69196 32.6332C6.30805 32.8642 5.9349 32.8666 5.55218 32.6296C5.30461 32.4752 5.04628 32.3379 4.71738 32.1483C4.87166 32.598 4.99366 32.9565 5.11684 33.3138C5.85357 35.4553 6.58552 37.5979 7.33302 39.7357C7.38325 39.8803 7.53992 40.0882 7.65234 40.0918C8.62468 40.121 9.59822 40.1088 10.6471 40.1088ZM33.3482 40.11C34.3193 40.11 35.2271 40.093 36.1325 40.1186C36.453 40.1271 36.5834 40.0128 36.6826 39.7175C37.4887 37.3354 38.3116 34.9594 39.1272 32.5798C39.1679 32.4619 39.2002 32.3428 39.2576 32.152C39.0339 32.2808 38.8653 32.3549 38.7242 32.4643C38.1477 32.9116 37.5976 32.8763 37.0055 32.4667C36.4853 32.107 35.9184 31.8165 35.33 31.4702C34.665 34.37 34.012 37.2127 33.3482 40.11Z" stroke="#503A2C" stroke-width="3.4" mask="url(#path-1-outside-1_1_7)"/>
</svg>
