<svg width="42" height="41" viewBox="0 0 42 41" fill="none" xmlns="http://www.w3.org/2000/svg">
<ellipse cx="21" cy="20.0833" rx="20" ry="20.0833" fill="#F4F0EF"/>
<path d="M11.5714 6.02502C10.8894 6.02502 10.2354 6.29707 9.75315 6.78132C9.27092 7.26556 9 7.92234 9 8.60717V30.9857C9 31.6706 9.27092 32.3273 9.75315 32.8116C10.2354 33.2958 10.8894 33.5679 11.5714 33.5679H23.5714C24.2534 33.5679 24.9075 33.2958 25.3897 32.8116C25.8719 32.3273 26.1429 31.6706 26.1429 30.9857V28.4036C26.1429 28.1753 26.0526 27.9564 25.8918 27.795C25.7311 27.6336 25.513 27.5429 25.2857 27.5429C24.5777 27.5429 24.1251 27.3673 23.8183 27.1366C23.5046 26.9008 23.2663 26.5479 23.0914 26.0642C22.7246 25.052 22.7143 23.711 22.7143 22.3786C22.7143 22.2654 22.692 22.1533 22.6487 22.0487C22.6055 21.9441 22.5421 21.8491 22.4623 21.7692L21.972 21.2752L19.8926 19.1871C19.092 18.3832 18.8571 17.8444 18.8126 17.5431C18.7783 17.3021 18.8503 17.1403 19.0217 16.975C19.3886 16.6221 19.6509 16.3829 19.9474 16.3106C20.124 16.2658 20.5269 16.2348 21.2503 16.9613L26.3931 22.1255C26.5539 22.2872 26.7719 22.378 26.9994 22.3782C27.112 22.3783 27.2236 22.3561 27.3276 22.3129C27.4317 22.2697 27.5263 22.2063 27.606 22.1264C27.6857 22.0465 27.7489 21.9516 27.7921 21.8471C27.8353 21.7427 27.8575 21.6307 27.8576 21.5176C27.8577 21.4045 27.8356 21.2925 27.7926 21.188C27.7495 21.0835 27.6864 20.9885 27.6069 20.9085L26.1429 19.4401V14.1278L30.5314 18.5346C30.7705 18.7744 30.9601 19.0591 31.0896 19.3725C31.219 19.6859 31.2856 20.0218 31.2857 20.3611V32.7072C31.2857 32.9354 31.376 33.1544 31.5368 33.3158C31.6975 33.4772 31.9155 33.5679 32.1429 33.5679C32.3702 33.5679 32.5882 33.4772 32.7489 33.3158C32.9097 33.1544 33 32.9354 33 32.7072V20.3611C32.9998 19.2202 32.5484 18.1261 31.7451 17.3193L26.1429 11.6937V8.60717C26.1429 7.92234 25.8719 7.26556 25.3897 6.78132C24.9075 6.29707 24.2534 6.02502 23.5714 6.02502H11.5714ZM24.4286 12.05V17.7187L22.464 15.7442C21.4714 14.7492 20.4857 14.4067 19.5411 14.6373C19.3556 14.6833 19.1756 14.7497 19.0046 14.8353C18.2383 14.6124 17.4309 14.5715 16.6461 14.7159C15.8614 14.8602 15.1208 15.1859 14.483 15.6671C13.8451 16.1483 13.3275 16.7719 12.9709 17.4885C12.6144 18.2052 12.4287 18.9953 12.4286 19.7965C12.4285 20.7948 12.7166 21.7717 13.258 22.6091C13.7994 23.4464 14.5709 24.1082 15.4791 24.5144C16.3873 24.9205 17.3932 25.0537 18.3752 24.8976C19.3572 24.7416 20.2731 24.3031 21.012 23.6352C21.0411 24.6302 21.1406 25.7182 21.48 26.6529C21.7337 27.3535 22.1383 28.0232 22.7897 28.512L22.8 28.5224C22.278 28.6872 21.822 29.015 21.4982 29.458C21.1745 29.9011 21 30.4362 21 30.9857V31.8465H14.1429V30.9857C14.1429 30.3009 13.8719 29.6441 13.3897 29.1599C12.9075 28.6756 12.2534 28.4036 11.5714 28.4036H10.7143V11.1893H11.5714C12.2534 11.1893 12.9075 10.9173 13.3897 10.433C13.8719 9.94877 14.1429 9.29199 14.1429 8.60717V7.74645H21V8.60717C21 9.29199 21.2709 9.94877 21.7532 10.433C22.2354 10.9173 22.8894 11.1893 23.5714 11.1893H24.4286V12.05ZM24.4286 30.9857V31.0012C24.4245 31.2268 24.3324 31.4418 24.1721 31.5999C24.0118 31.7579 23.7961 31.8465 23.5714 31.8465H22.7143V30.9857C22.7143 30.7575 22.8046 30.5385 22.9653 30.3771C23.1261 30.2157 23.3441 30.125 23.5714 30.125H24.4286V30.9857ZM14.1429 19.7965C14.1429 18.9209 14.4751 18.0783 15.0719 17.4399C15.6687 16.8016 16.4852 16.4156 17.3554 16.3605C17.1429 16.7564 17.0349 17.2384 17.1171 17.7944C17.2389 18.6242 17.7651 19.4866 18.6789 20.4041L20.2337 21.9655C19.7874 22.5178 19.1816 22.9178 18.4996 23.1103C17.8177 23.3029 17.0931 23.2787 16.4255 23.0409C15.7578 22.8032 15.1799 22.3636 14.7712 21.7826C14.3624 21.2016 14.1429 20.5078 14.1429 19.7965ZM12.4286 7.74645V8.60717C12.4286 8.83544 12.3383 9.05437 12.1775 9.21578C12.0168 9.3772 11.7988 9.46788 11.5714 9.46788H10.7143V8.60717C10.7143 8.37889 10.8046 8.15997 10.9653 7.99855C11.1261 7.83714 11.3441 7.74645 11.5714 7.74645H12.4286ZM10.7143 30.125H11.5714C11.7988 30.125 12.0168 30.2157 12.1775 30.3771C12.3383 30.5385 12.4286 30.7575 12.4286 30.9857V31.8465H11.5714C11.3441 31.8465 11.1261 31.7558 10.9653 31.5944C10.8046 31.4329 10.7143 31.214 10.7143 30.9857V30.125ZM24.4286 9.46788H23.5714C23.3441 9.46788 23.1261 9.3772 22.9653 9.21578C22.8046 9.05437 22.7143 8.83544 22.7143 8.60717V7.74645H23.5714C23.7988 7.74645 24.0168 7.83714 24.1775 7.99855C24.3383 8.15997 24.4286 8.37889 24.4286 8.60717V9.46788Z" fill="#544232"/>
<path d="M25.9806 38.5138H25.2225H25.216H25.2095H25.203H25.1965H25.19H25.1835H25.1769H25.1704H25.1639H25.1575H25.151H25.1445H25.138H25.1315H25.125H25.1185H25.112H25.1055H25.099H25.0926H25.0861H25.0796H25.0731H25.0666H25.0601H25.0537H25.0472H25.0407H25.0343H25.0278H25.0213H25.0148H25.0084H25.0019H24.9954H24.989H24.9825H24.976H24.9696H24.9631H24.9567H24.9502H24.9438H24.9373H24.9309H24.9244H24.9179H24.9115H24.9051H24.8986H24.8922H24.8857H24.8793H24.8728H24.8664H24.8599H24.8535H24.8471H24.8406H24.8342H24.8278H24.8213H24.8149H24.8085H24.802H24.7956H24.7892H24.7827H24.7763H24.7699H24.7635H24.757H24.7506H24.7442H24.7378H24.7314H24.7249H24.7185H24.7121H24.7057H24.6993H24.6929H24.6865H24.6801H24.6736H24.6672H24.6608H24.6544H24.648H24.6416H24.6352H24.6288H24.6224H24.616H24.6096H24.6032H24.5968H24.5904H24.584H24.5776H24.5712H24.5648H24.5585H24.5521H24.5457H24.5393H24.5329H24.5265H24.5201H24.5137H24.5074H24.501H24.4946H24.4882H24.4818H24.4755H24.4691H24.4627H24.4563H24.4499H24.4436H24.4372H24.4308H24.4245H24.4181H24.4117H24.4053H24.399H24.3926H24.3862H24.3799H24.3735H24.3671H24.3608H24.3544H24.3481H24.3417H24.3353H24.329H24.3226H24.3163H24.3099H24.3035H24.2972H24.2908H24.2845H24.2781H24.2718H24.2654H24.2591H24.2527H24.2464H24.24H24.2337H24.2273H24.221H24.2146H24.2083H24.2019H24.1956H24.1893H24.1829H24.1766H24.1702H24.1639H24.1576H24.1512H24.1449H24.1385H24.1322H24.1259H24.1195H24.1132H24.1069H24.1005H24.0942H24.0879H24.0815H24.0752H24.0689H24.0625H24.0562H24.0499H24.0436H24.0372H24.0309H24.0246H24.0183H24.0119H24.0056H23.9993H23.993H23.9866H23.9803H23.974H23.9677H23.9614H23.955H23.9487H23.9424H23.9361H23.9298H23.9235H23.9171H23.9108H23.9045H23.8982H23.8919H23.8856H23.8793H23.8729H23.8666H23.8603H23.854H23.8477H23.8414H23.8351H23.8288H23.8225H23.8162H23.8098H23.8035H23.7972H23.7909H23.7846H23.7783H23.772H23.7657H23.7594H23.7531H23.7468H23.7405H23.7342H23.7279H23.7216H23.7153H23.709H23.7027H23.6964H23.6901H23.6838H23.6775H23.6712H23.6649H23.6586H23.6523H23.646H23.6397H23.6334H23.6271H23.6208H23.6145H23.6082H23.602H23.5957H23.5894H23.5831H23.5768H23.5705H23.5642H23.5579H23.5516H23.5453H23.539H23.5327H23.5265H23.5202H23.5139H23.5076H23.5013H23.495H23.4887H23.4824H23.4761H23.4699H23.4636H23.4573H23.451H23.4447H23.4384H23.4321H23.4258H23.4196H23.4133H23.407H23.4007H23.3944H23.3881H23.3819H23.3756H23.3693H23.363H23.3567H23.3504H23.3441H23.3379H23.3316H23.3253H23.319H23.3127H23.3065H23.3002H23.2939H23.2876H23.2813H23.275H23.2688H23.2625H23.2562H23.2499H23.2436H23.2374H23.2311H23.2248H23.2185H23.2122H23.206H23.1997H23.1934H23.1871H23.1808H23.1746H23.1683H23.162H23.1557H23.1494H23.1432H23.1369H23.1306H23.1243H23.118H23.1118H23.1055H23.0992H23.0929H23.0866H23.0804H23.0741H23.0678H23.0615H23.0552H23.049H23.0427H23.0364H23.0301H23.0238H23.0176H23.0113H23.005H22.9987H22.9924H22.9862H22.9799H22.9736H22.9673H22.961H22.9548H22.9485H22.9422H22.9359H22.9296H22.9233H22.9171H22.9108H22.9045H22.8982H22.8919H22.8857H22.8794H22.8731H22.8668H22.8605H22.8543H22.848H22.8417H22.8354H22.8291H22.8228H22.8166H22.8103H22.804H22.7977H22.7914H22.7851H22.7789H22.7726H22.7663H22.76H22.7537H22.7474H22.7411H22.7349H22.7286H22.7223H22.716H22.7097H22.7034H22.6971H22.6909H22.6846H22.6783H22.672H22.6657H22.6594H22.6531H22.6468H22.6405H22.6343H22.628H22.6217H22.6154H22.6091H22.6028H22.5965H22.5902H22.5839H22.5776H22.5713H22.565H22.5588H22.5525H22.5462H22.5399H22.5336H22.5273H22.521H22.5147H22.5084H22.5021H22.4958H22.4895H22.4832H22.4769H22.4706H22.4643H22.458H22.4517H22.4454H22.4391H22.4328H22.4265H22.4202H22.4139H22.4076H22.4013H22.395H22.3887H22.3824H22.3761H22.3698H22.3635H22.3572H22.3508H22.3445H22.3382H22.3319H22.3256H22.3193H22.313H22.3067H22.3004H22.2941H22.2878H22.2814H22.2751H22.2688H22.2625H22.2562H22.2499H22.2436H22.2372H22.2309H22.2246H22.2183H22.212H22.2057H22.1993H22.193H22.1867H22.1804H22.1741H22.1677H22.1614H22.1551H22.1488H22.1424H22.1361H22.1298H22.1235H22.1171H22.1108H22.1045H22.0981H22.0918H22.0855H22.0792H22.0728H22.0665H22.0602H22.0538H22.0475H22.0412H22.0348H22.0285H22.0221H22.0158H22.0095H22.0031H21.9968H21.9905H21.9841H21.9778H21.1278V37.6638V37.6474V37.6311V37.6147V37.5983V37.5819V37.5655V37.5491V37.5328V37.5164V37.5V37.4836V37.4672V37.4508V37.4345V37.4181V37.4017V37.3853V37.3689V37.3526V37.3362V37.3198V37.3034V37.287V37.2707V37.2543V37.2379V37.2215V37.2052V37.1888V37.1724V37.156V37.1397V37.1233V37.1069V37.0905V37.0742V37.0578V37.0414V37.025V37.0087V36.9923V36.9759V36.9595V36.9432V36.9268V36.9104V36.894V36.8777V36.8613V36.8449V36.8286V36.8122V36.7958V36.7794V36.7631V36.7467V36.7303V36.714V36.6976V36.6812V36.6648V36.6485V36.6321V36.6157V36.5994V36.583V36.5666V36.5503V36.5339V36.5175V36.5011V36.4848V36.4684V36.452V36.4357V36.4193V36.4029V36.3866V36.3702V36.3538V36.3375V36.3211V36.3047V36.2884V36.272V36.2556V36.2393V36.2229V36.2065V36.1902V36.1738V36.1574V36.1411V36.1247V36.1083V36.092V36.0756V36.0592V36.0428V36.0265V36.0101V35.9937V35.9774V35.961V35.9446V35.9283V35.9119V35.8955V35.8792V35.8628V35.8464V35.8301V35.8137V35.7973V35.781V35.7646V35.7482V35.7319V35.7155V35.6991V35.6828V35.6664V35.65V35.6337V35.6173V35.6009V35.5846V35.5682V35.5518V35.5355V35.5191V35.5027V35.4864V35.47V35.4536V35.4373V35.4209V35.4045V35.3881V35.3718V35.3554V35.339V35.3227V35.3063V35.2899V35.2736V35.2572V35.2408V35.2244V35.2081V35.1917V35.1753V35.159V35.1426V35.1262V35.1098V35.0935V35.0771V35.0607V35.0444V35.028V35.0116V34.9952V34.9789V34.9625V34.9461V34.9297V34.9134V34.897V34.8806V34.8643V34.8479V34.8315V34.8151V34.7987V34.7824V34.766V34.7496V34.7332V34.7169V34.7005V34.6841V34.6677V34.6514V34.635V34.6186V34.6022V34.5858V34.5695V34.5531V34.5367V34.5203V34.5039V34.4876V34.4712V34.4548V34.4384V34.422V34.4057V34.3893V34.3729V34.3565V34.3401V34.3237V34.3074V34.291V34.2746V34.2582V34.2418V34.2254V34.209V34.1926V34.1763V34.1599V34.1435V34.1271V34.1107V34.0943V34.0779V34.0615V34.0451V34.0288V34.0124V33.996V33.9796V33.9632V33.9468V33.9304V33.914V33.8976V33.8812V33.8648V33.8484V33.832V33.8156V33.7992V33.7828V33.7664V33.75V33.7336V33.7172V33.7008V33.6844V33.668V33.6516V33.6352V33.6188V33.6024V33.586V33.5696V33.5532V33.5368V33.5204V33.504V33.4876V33.4712V33.4548V33.4384V33.422V33.4056V33.3892V33.3727V33.3563V33.3399V33.3235V33.3071V33.2907V33.2743V33.2579V33.2414V33.225V33.2086V33.1922V33.1758V33.1594V33.1429V33.1265V33.1101V33.0937V33.0773V33.0608V33.0444V33.028V33.0116V32.9952V32.9787V32.9623V32.9459V32.9295V32.913V32.8966V32.8802V32.8637V32.8473V32.8309V32.8144V32.798V32.7816V32.7652V32.7487V32.7323V32.7158V32.6994V32.683V32.6665V32.6501V32.6337V32.6172V32.6008V32.5843V32.5679V32.5515V32.535V32.5186V32.5021V32.4857V32.4692V32.4528V32.4363V32.4199V32.4035V32.387V32.3706V32.3541V32.3377V32.3212V32.3047V32.2883V32.2718V32.2554V32.2389V32.2225V32.206V32.1896V32.1731V32.1566V32.1402V32.1237V32.1072V32.0908V32.0743V32.0579V32.0414V32.0249V32.0085V31.992V31.9755V31.959V31.9426V31.9261V31.9096V31.8932V31.8767V31.8602V31.8437V31.8273V31.8108V31.7943V31.7778V31.7613V31.7449V31.7284V31.7119V31.6954V31.6789V31.6624V31.646V31.6295V31.613V31.5965V31.58V31.5635V31.547V31.5305V31.514V31.4975V31.481V31.4645V31.448V31.4315V31.415V31.3985V31.382V31.3655V31.349V31.3325V31.316V31.2995V31.283V31.2665V31.25V31.2335V31.217V31.2005V31.1839V31.1674V31.1509V31.1344V31.1179V31.1014V31.0848V31.0683V31.0518V31.0353V31.0187V31.0022V30.9857V30.9692V30.9526V30.9361V30.9196V30.903V30.8865V30.87V30.8534V30.8369V30.8204V30.8038V30.7873V30.7708V30.7542V30.7377V30.7211V30.7046V30.688V30.6715V30.6549V30.6384V30.6218V30.6053V30.5887V30.5722V30.5556V30.5391V30.5225V30.506V30.4894V30.4728V30.4563V30.4397V30.4232V30.4066V30.39V30.3735V30.3569V30.3403V30.3237V30.3072V30.2906V30.274V30.2575V30.2409V30.2243V30.2077V30.1911V30.1746V30.158V30.1414V30.1248V30.1082V30.0916V30.075V30.0584V30.0419V30.0253V30.0087V29.9921V29.9755V29.9589V29.9423V29.9257V29.9091V29.8925V29.8759V29.8593V29.8427V29.826V29.8094V29.7928V29.7762V29.7596V29.743V29.7264V29.7098V29.6931V29.6765V29.6599V29.6433V29.6266V29.61V29.5934V29.5768V29.5601V29.5435V29.5269V29.5102V29.4936V29.477V29.4603V29.4437V29.4271V29.4104V29.3938V29.3771V29.3605V29.3438V29.3272V29.3105V29.2939V29.2772V29.2606V29.2439V27.7596L22.408 28.5108C22.5449 28.5912 22.688 28.673 22.8339 28.7565C23.1902 28.9603 23.564 29.1741 23.9098 29.4014M25.9806 38.5138L23.4429 30.1117M25.9806 38.5138L26.067 37.7606L27.019 29.4562L27.2132 27.7621L25.7435 28.6268C25.6131 28.7035 25.4785 28.7803 25.3427 28.8578C25.0299 29.0364 24.7108 29.2185 24.4226 29.411M25.9806 38.5138L24.8948 30.1178M23.9098 29.4014L23.4429 30.1117M23.9098 29.4014C23.9097 29.4014 23.9096 29.4013 23.9096 29.4013L23.4429 30.1117M23.9098 29.4014C24.059 29.4994 24.141 29.5101 24.1765 29.5104C24.2086 29.5107 24.2836 29.5038 24.4226 29.411M23.4429 30.1117C23.9368 30.4362 24.3996 30.4483 24.8948 30.1178M24.4226 29.411L24.8948 30.1178M24.4226 29.411C24.4227 29.4109 24.4228 29.4109 24.4228 29.4108L24.8948 30.1178M13.8678 29.1285L14.7122 29.0317L14.5633 27.7323L13.4364 28.3961L13.8678 29.1285ZM13.8678 29.1285C14.0142 30.4063 14.1595 31.6727 14.3046 32.9381C14.4854 34.5142 14.666 36.0885 14.8485 37.6808M13.8678 29.1285C13.6755 29.2417 13.4869 29.3519 13.3011 29.4606C12.8846 29.704 12.4819 29.9393 12.0833 30.1822C11.6743 30.4301 11.2796 30.4374 10.8718 30.1846M14.8485 37.6808C14.6156 37.6808 14.3876 37.6815 14.1631 37.6821C13.6796 37.6834 13.2119 37.6846 12.7447 37.6796M14.8485 37.6808L15.6929 37.5841L15.8014 38.5308H14.8485V37.6808ZM10.8718 30.1846L11.3196 29.4621L11.3179 29.4611L10.8718 30.1846ZM10.8718 30.1846C10.6218 30.0304 10.3676 29.883 10.0981 29.7267C9.98728 29.6624 9.87388 29.5967 9.75713 29.5283M9.75713 29.5283L10.1866 28.7948L8.62217 27.8789L8.91857 29.6673L9.75713 29.5283ZM9.75713 29.5283C9.76321 29.565 9.7682 29.5963 9.7726 29.6238C9.78207 29.6831 9.78882 29.7254 9.7978 29.7677M9.7978 29.7677L8.96622 29.9442L8.96922 29.9574L9.7978 29.7677ZM9.7978 29.7677C9.9013 30.22 10.0048 30.6723 10.1082 31.1246C10.5224 32.9353 10.9366 34.746 11.3538 36.5567C11.377 36.6573 11.3931 36.769 11.4093 36.8813C11.4508 37.169 11.4929 37.4614 11.6564 37.5873C11.8362 37.7263 12.1377 37.7085 12.4324 37.691C12.5395 37.6846 12.6456 37.6783 12.7447 37.6796M12.7447 37.6796L12.7336 38.5296L12.7357 38.5296L12.7447 37.6796ZM28.1264 29.126L28.5585 28.3941L27.4306 27.7281L27.2819 29.0295L28.1264 29.126ZM28.1264 29.126C28.3283 29.2453 28.5246 29.3596 28.7166 29.4714C29.1137 29.7026 29.4925 29.9232 29.8641 30.1542M28.1264 29.126C27.9 31.1055 27.6766 33.0557 27.4524 35.0117C27.3508 35.8983 27.249 36.7861 27.1468 37.6784M29.8641 30.1542C30.3126 30.4337 30.7372 30.4362 31.1797 30.1506M29.8641 30.1542L30.3129 29.4323L30.3137 29.4329L29.8641 30.1542ZM27.1468 37.6784L26.3024 37.5817L26.1939 38.5284H27.1468V37.6784ZM27.1468 37.6784C27.3732 37.6784 27.5969 37.6788 27.8185 37.6792C28.6318 37.6806 29.4166 37.682 30.2014 37.6638M30.2014 37.6638L30.221 38.5136L30.2247 38.5135L30.2014 37.6638ZM30.2014 37.6638C30.2899 37.6614 30.4227 37.4718 30.4514 37.3491C30.7976 35.8852 31.133 34.4186 31.4686 32.9516C31.5214 32.7208 31.5742 32.49 31.627 32.2592C31.8315 31.3671 32.0361 30.4739 32.2561 29.5113M32.2561 29.5113L33.0847 29.7007L33.525 27.7748L31.8239 28.7794L32.2561 29.5113ZM32.2561 29.5113C32.1272 29.5874 32.0046 29.6584 31.8869 29.7266C31.6344 29.8729 31.404 30.0064 31.1797 30.1506M31.1797 30.1506L30.72 29.4356L30.7188 29.4364L31.1797 30.1506ZM7.66296 29.0422L8.49138 28.8519L8.23159 27.7211L7.23175 28.3097L7.66296 29.0422ZM7.66296 29.0422C7.94744 30.2804 8.23015 31.5113 8.51309 32.7431C8.88914 34.3804 9.26559 36.0193 9.6471 37.6796M7.66296 29.0422C7.44828 29.1686 7.23864 29.2914 7.03262 29.4122C6.57295 29.6817 6.13131 29.9405 5.69196 30.204M9.6471 37.6796C9.40559 37.6796 9.16806 37.6803 8.93363 37.6809C8.14995 37.683 7.40079 37.6851 6.65234 37.6626M9.6471 37.6796L10.4755 37.4893L10.7146 38.5296H9.6471V37.6796ZM5.69196 30.204L5.25476 29.4751L5.25385 29.4757L5.69196 30.204ZM5.69196 30.204C5.30805 30.435 4.9349 30.4374 4.55218 30.2004C4.39173 30.1004 4.22676 30.0075 4.04099 29.9029C3.94012 29.8461 3.83312 29.7858 3.71738 29.7191M3.71738 29.7191L4.14188 28.9827L2.17759 27.8504L2.91338 29.995L3.71738 29.7191ZM3.71738 29.7191C3.78025 29.9024 3.83776 30.0705 3.89218 30.2296C3.97129 30.4608 4.04386 30.6729 4.11684 30.8846C4.11788 30.8877 4.11892 30.8907 4.11995 30.8937L4.10249 30.9217L4.10468 30.9231L4.121 30.8967C4.29051 31.3894 4.45976 31.8822 4.62902 32.375C5.19398 34.0199 5.75892 35.6646 6.33302 37.3065C6.38325 37.4511 6.53992 37.659 6.65234 37.6626M6.65234 37.6626L6.62479 38.5122L6.62686 38.5122L6.65234 37.6626ZM38.2576 29.7228L39.0716 29.9677L39.6883 27.9177L37.8333 28.9862L38.2576 29.7228ZM38.2576 29.7228C38.2395 29.7829 38.2239 29.8359 38.2098 29.884C38.179 29.9885 38.1551 30.0698 38.1272 30.1506L34.33 29.041C34.5146 29.1496 34.6971 29.2528 34.8767 29.3544C35.2696 29.5764 35.6485 29.7907 36.0055 30.0375M38.2576 29.7228C38.183 29.7657 38.1145 29.8026 38.0511 29.8368C37.934 29.8998 37.8343 29.9535 37.7456 30.0189L37.6992 30.0029L37.2035 29.3633L37.2031 29.3635L37.6992 30.0029L37.3237 29.8734L37.3232 29.875L37.7002 30.0042L37.7242 30.0351M37.7242 30.0351C37.1477 30.4824 36.5976 30.4471 36.0055 30.0375M37.7242 30.0351L37.7002 30.0042L37.7448 30.0195C37.7379 30.0246 37.731 30.0298 37.7242 30.0351ZM36.0055 30.0375L36.4891 29.3385L36.489 29.3384L36.0055 30.0375ZM16.2474 28.6285L14.7814 27.7746L14.9752 29.4601C15.1289 30.7971 15.2805 32.1187 15.4312 33.4317C15.5969 34.8754 15.7613 36.3087 15.926 37.7403L16.0126 38.4932H16.7704H16.777H16.7835H16.79H16.7965H16.8031H16.8096H16.8161H16.8226H16.8292H16.8357H16.8422H16.8487H16.8552H16.8618H16.8683H16.8748H16.8813H16.8878H16.8943H16.9008H16.9074H16.9139H16.9204H16.9269H16.9334H16.9399H16.9464H16.9529H16.9594H16.9659H16.9724H16.9789H16.9854H16.9919H16.9984H17.0049H17.0114H17.0179H17.0244H17.0309H17.0374H17.0438H17.0503H17.0568H17.0633H17.0698H17.0763H17.0828H17.0892H17.0957H17.1022H17.1087H17.1152H17.1216H17.1281H17.1346H17.1411H17.1475H17.154H17.1605H17.167H17.1734H17.1799H17.1864H17.1928H17.1993H17.2058H17.2122H17.2187H17.2252H17.2316H17.2381H17.2446H17.251H17.2575H17.2639H17.2704H17.2768H17.2833H17.2898H17.2962H17.3027H17.3091H17.3156H17.322H17.3285H17.3349H17.3414H17.3478H17.3543H17.3607H17.3671H17.3736H17.38H17.3865H17.3929H17.3994H17.4058H17.4122H17.4187H17.4251H17.4315H17.438H17.4444H17.4508H17.4573H17.4637H17.4701H17.4766H17.483H17.4894H17.4959H17.5023H17.5087H17.5151H17.5216H17.528H17.5344H17.5408H17.5473H17.5537H17.5601H17.5665H17.5729H17.5793H17.5858H17.5922H17.5986H17.605H17.6114H17.6178H17.6242H17.6307H17.6371H17.6435H17.6499H17.6563H17.6627H17.6691H17.6755H17.6819H17.6883H17.6947H17.7011H17.7075H17.7139H17.7203H17.7267H17.7331H17.7395H17.7459H17.7523H17.7587H17.7651H17.7715H17.7779H17.7843H17.7907H17.7971H17.8035H17.8098H17.8162H17.8226H17.829H17.8354H17.8418H17.8482H17.8546H17.8609H17.8673H17.8737H17.8801H17.8865H17.8928H17.8992H17.9056H17.912H17.9184H17.9247H17.9311H17.9375H17.9439H17.9502H17.9566H17.963H17.9694H17.9757H17.9821H17.9885H17.9948H18.0012H18.0076H18.0139H18.0203H18.0267H18.033H18.0394H18.0458H18.0521H18.0585H18.0649H18.0712H18.0776H18.0839H18.0903H18.0967H18.103H18.1094H18.1157H18.1221H18.1285H18.1348H18.1412H18.1475H18.1539H18.1602H18.1666H18.1729H18.1793H18.1856H18.192H18.1983H18.2047H18.211H18.2174H18.2237H18.2301H18.2364H18.2428H18.2491H18.2554H18.2618H18.2681H18.2745H18.2808H18.2872H18.2935H18.2998H18.3062H18.3125H18.3189H18.3252H18.3315H18.3379H18.3442H18.3505H18.3569H18.3632H18.3695H18.3759H18.3822H18.3885H18.3949H18.4012H18.4075H18.4139H18.4202H18.4265H18.4328H18.4392H18.4455H18.4518H18.4582H18.4645H18.4708H18.4771H18.4835H18.4898H18.4961H18.5024H18.5088H18.5151H18.5214H18.5277H18.534H18.5404H18.5467H18.553H18.5593H18.5656H18.5719H18.5783H18.5846H18.5909H18.5972H18.6035H18.6098H18.6162H18.6225H18.6288H18.6351H18.6414H18.6477H18.654H18.6603H18.6666H18.673H18.6793H18.6856H18.6919H18.6982H18.7045H18.7108H18.7171H18.7234H18.7297H18.736H18.7423H18.7486H18.7549H18.7612H18.7676H18.7739H18.7802H18.7865H18.7928H18.7991H18.8054H18.8117H18.818H18.8243H18.8306H18.8369H18.8432H18.8495H18.8558H18.862H18.8683H18.8746H18.8809H18.8872H18.8935H18.8998H18.9061H18.9124H18.9187H18.925H18.9313H18.9376H18.9439H18.9502H18.9565H18.9627H18.969H18.9753H18.9816H18.9879H18.9942H19.0005H19.0068H19.0131H19.0194H19.0256H19.0319H19.0382H19.0445H19.0508H19.0571H19.0634H19.0696H19.0759H19.0822H19.0885H19.0948H19.1011H19.1073H19.1136H19.1199H19.1262H19.1325H19.1388H19.145H19.1513H19.1576H19.1639H19.1702H19.1764H19.1827H19.189H19.1953H19.2016H19.2078H19.2141H19.2204H19.2267H19.2329H19.2392H19.2455H19.2518H19.2581H19.2643H19.2706H19.2769H19.2832H19.2894H19.2957H19.302H19.3083H19.3145H19.3208H19.3271H19.3333H19.3396H19.3459H19.3522H19.3584H19.3647H19.371H19.3772H19.3835H19.3898H19.3961H19.4023H19.4086H19.4149H19.4211H19.4274H19.4337H19.44H19.4462H19.4525H19.4588H19.465H19.4713H19.4776H19.4838H19.4901H19.4964H19.5026H19.5089H19.5152H19.5214H19.5277H19.534H19.5402H19.5465H19.5528H19.559H19.5653H19.5716H19.5778H19.5841H19.5904H19.5966H19.6029H19.6091H19.6154H19.6217H19.6279H19.6342H19.6405H19.6467H19.653H19.6593H19.6655H19.6718H19.678H19.6843H19.6906H19.6968H19.7031H19.7094H19.7156H19.7219H19.7281H19.7344H19.7407H19.7469H19.7532H19.7594H19.7657H19.772H19.7782H19.7845H19.7907H19.797H19.8033H19.8095H19.8158H19.822H19.8283H19.8346H19.8408H19.8471H19.8533H19.8596H19.8659H19.8721H19.8784H19.8846H19.8909H19.8972H19.9034H19.9097H19.9159H19.9222H19.9284H19.9347H19.941H19.9472H19.9535H19.9597H19.966H19.9723H19.9785H19.9848H19.991H19.9973H20.0035H20.0098H20.0161H20.0223H20.8723V37.6432V37.6267V37.6103V37.5938V37.5774V37.561V37.5445V37.5281V37.5117V37.4952V37.4788V37.4624V37.4459V37.4295V37.4131V37.3966V37.3802V37.3638V37.3473V37.3309V37.3145V37.2981V37.2816V37.2652V37.2488V37.2324V37.2159V37.1995V37.1831V37.1667V37.1503V37.1339V37.1174V37.101V37.0846V37.0682V37.0518V37.0354V37.0189V37.0025V36.9861V36.9697V36.9533V36.9369V36.9205V36.9041V36.8877V36.8713V36.8549V36.8385V36.8221V36.8057V36.7892V36.7728V36.7564V36.74V36.7236V36.7072V36.6908V36.6744V36.6581V36.6417V36.6253V36.6089V36.5925V36.5761V36.5597V36.5433V36.5269V36.5105V36.4941V36.4777V36.4613V36.4449V36.4285V36.4122V36.3958V36.3794V36.363V36.3466V36.3302V36.3138V36.2975V36.2811V36.2647V36.2483V36.2319V36.2155V36.1992V36.1828V36.1664V36.15V36.1336V36.1173V36.1009V36.0845V36.0681V36.0517V36.0354V36.019V36.0026V35.9862V35.9699V35.9535V35.9371V35.9207V35.9044V35.888V35.8716V35.8553V35.8389V35.8225V35.8061V35.7898V35.7734V35.757V35.7407V35.7243V35.7079V35.6916V35.6752V35.6588V35.6425V35.6261V35.6097V35.5934V35.577V35.5606V35.5443V35.5279V35.5115V35.4952V35.4788V35.4625V35.4461V35.4297V35.4134V35.397V35.3806V35.3643V35.3479V35.3316V35.3152V35.2988V35.2825V35.2661V35.2498V35.2334V35.217V35.2007V35.1843V35.168V35.1516V35.1353V35.1189V35.1025V35.0862V35.0698V35.0535V35.0371V35.0208V35.0044V34.988V34.9717V34.9553V34.939V34.9226V34.9063V34.8899V34.8736V34.8572V34.8408V34.8245V34.8081V34.7918V34.7754V34.7591V34.7427V34.7264V34.71V34.6937V34.6773V34.661V34.6446V34.6283V34.6119V34.5956V34.5792V34.5628V34.5465V34.5301V34.5138V34.4974V34.4811V34.4647V34.4484V34.432V34.4157V34.3993V34.383V34.3666V34.3503V34.3339V34.3176V34.3012V34.2849V34.2685V34.2522V34.2358V34.2195V34.2031V34.1868V34.1704V34.1541V34.1377V34.1214V34.105V34.0886V34.0723V34.0559V34.0396V34.0232V34.0069V33.9905V33.9742V33.9578V33.9415V33.9251V33.9088V33.8924V33.8761V33.8597V33.8434V33.827V33.8107V33.7943V33.7779V33.7616V33.7452V33.7289V33.7125V33.6962V33.6798V33.6635V33.6471V33.6308V33.6144V33.598V33.5817V33.5653V33.549V33.5326V33.5163V33.4999V33.4836V33.4672V33.4508V33.4345V33.4181V33.4018V33.3854V33.369V33.3527V33.3363V33.32V33.3036V33.2873V33.2709V33.2545V33.2382V33.2218V33.2055V33.1891V33.1727V33.1564V33.14V33.1236V33.1073V33.0909V33.0746V33.0582V33.0418V33.0255V33.0091V32.9927V32.9764V32.96V32.9436V32.9273V32.9109V32.8945V32.8782V32.8618V32.8454V32.8291V32.8127V32.7963V32.78V32.7636V32.7472V32.7308V32.7145V32.6981V32.6817V32.6653V32.649V32.6326V32.6162V32.5999V32.5835V32.5671V32.5507V32.5344V32.518V32.5016V32.4852V32.4688V32.4525V32.4361V32.4197V32.4033V32.3869V32.3706V32.3542V32.3378V32.3214V32.305V32.2886V32.2723V32.2559V32.2395V32.2231V32.2067V32.1903V32.1739V32.1576V32.1412V32.1248V32.1084V32.092V32.0756V32.0592V32.0428V32.0264V32.01V31.9936V31.9772V31.9609V31.9445V31.9281V31.9117V31.8953V31.8789V31.8625V31.8461V31.8297V31.8133V31.7969V31.7805V31.7641V31.7477V31.7313V31.7148V31.6984V31.682V31.6656V31.6492V31.6328V31.6164V31.6V31.5836V31.5672V31.5508V31.5343V31.5179V31.5015V31.4851V31.4687V31.4523V31.4359V31.4194V31.403V31.3866V31.3702V31.3538V31.3373V31.3209V31.3045V31.2881V31.2716V31.2552V31.2388V31.2224V31.2059V31.1895V31.1731V31.1566V31.1402V31.1238V31.1073V31.0909V31.0745V31.058V31.0416V31.0252V31.0087V30.9923V30.9759V30.9594V30.943V30.9265V30.9101V30.8936V30.8772V30.8607V30.8443V30.8279V30.8114V30.795V30.7785V30.762V30.7456V30.7291V30.7127V30.6962V30.6798V30.6633V30.6469V30.6304V30.6139V30.5975V30.581V30.5646V30.5481V30.5316V30.5152V30.4987V30.4822V30.4658V30.4493V30.4328V30.4163V30.3999V30.3834V30.3669V30.3504V30.334V30.3175V30.301V30.2845V30.268V30.2516V30.2351V30.2186V30.2021V30.1856V30.1691V30.1526V30.1361V30.1197V30.1032V30.0867V30.0702V30.0537V30.0372V30.0207V30.0042V29.9877V29.9712V29.9547V29.9382V29.9217V29.9052V29.8887V29.8721V29.8556V29.8391V29.8226V29.8061V29.7896V29.7731V29.7566V29.74V29.7235V29.707V29.6905V29.674V29.6574V29.6409V29.6244V29.6079V29.5913V29.5748V29.5583V29.5417V29.5252V29.5087V29.4921V29.4756V29.459V29.4425V29.426V29.4094V29.3929V29.3763V29.3598V29.3432V29.3267V29.3101V29.2936V29.277V29.2605V29.2439V27.7603L19.5924 28.5106C19.4966 28.5668 19.3854 28.6281 19.2661 28.6939C18.9585 28.8634 18.5966 29.0629 18.3018 29.2829C18.0633 29.4606 17.9106 29.4952 17.8197 29.4961C17.734 29.4971 17.5907 29.4697 17.3646 29.2968L17.3638 29.2962C17.1074 29.1005 16.7815 28.9227 16.514 28.7768C16.415 28.7228 16.324 28.6731 16.2474 28.6285Z" fill="#F4F0EF" stroke="#503A2C" stroke-width="1.7"/>
</svg>
