<svg width="42" height="41" viewBox="0 0 115 113" fill="none" xmlns="http://www.w3.org/2000/svg">
<path d="M112.238 54.814C112.238 85.087 87.7989 109.628 57.6515 109.628C27.5042 109.628 3.06494 85.087 3.06494 54.814C3.06494 24.5411 27.5042 1.06542e-09 57.6515 2.37967e-09C87.7989 3.69393e-09 112.238 24.5411 112.238 54.814Z" fill="#F4F0EF"/>
<path d="M25.2506 58.8284L36.4174 47.5018L47.7572 59.0038L47.9353 59.1845L48.1133 59.0037L78.8859 27.7633L90.0526 39.0898L47.9352 81.8648L25.2506 58.8284ZM79.0645 34.9837L78.8863 34.8017L78.7076 34.9832L47.934 66.2523L36.5944 54.8867L36.4196 54.7115L36.2426 54.8846L32.3942 58.6496L32.2147 58.8253L32.3912 59.004L47.7573 74.5623L47.9354 74.7425L48.1132 74.5621L82.9122 39.2652L83.0846 39.0903L82.9128 38.9148L79.0645 34.9837Z" fill="#544232" stroke="#544232" stroke-width="0.5"/>
<path d="M65.6098 82.1803C64.6653 81.5594 63.6438 80.9751 62.671 80.4186C62.2728 80.1909 61.8828 79.9678 61.5096 79.7488L57.9702 77.6718V81.7756V81.821V81.8665V81.9119V81.9574V82.0028V82.0483V82.0937V82.1391V82.1846V82.23V82.2754V82.3208V82.3662V82.4116V82.457V82.5024V82.5478V82.5932V82.6386V82.684V82.7294V82.7748V82.8202V82.8655V82.9109V82.9563V83.0016V83.047V83.0923V83.1377V83.183V83.2284V83.2737V83.3191V83.3644V83.4097V83.455V83.5004V83.5457V83.591V83.6363V83.6816V83.7269V83.7722V83.8175V83.8628V83.9081V83.9534V83.9987V84.044V84.0892V84.1345V84.1798V84.225V84.2703V84.3156V84.3608V84.4061V84.4513V84.4966V84.5418V84.5871V84.6323V84.6775V84.7228V84.768V84.8132V84.8584V84.9037V84.9489V84.9941V85.0393V85.0845V85.1297V85.1749V85.2201V85.2653V85.3105V85.3557V85.4008V85.446V85.4912V85.5364V85.5815V85.6267V85.6719V85.717V85.7622V85.8074V85.8525V85.8977V85.9428V85.9879V86.0331V86.0782V86.1234V86.1685V86.2136V86.2587V86.3039V86.349V86.3941V86.4392V86.4843V86.5294V86.5745V86.6196V86.6647V86.7098V86.7549V86.8V86.8451V86.8902V86.9353V86.9804V87.0254V87.0705V87.1156V87.1606V87.2057V87.2508V87.2958V87.3409V87.3859V87.431V87.4761V87.5211V87.5661V87.6112V87.6562V87.7013V87.7463V87.7913V87.8364V87.8814V87.9264V87.9714V88.0164V88.0615V88.1065V88.1515V88.1965V88.2415V88.2865V88.3315V88.3765V88.4215V88.4665V88.5115V88.5565V88.6014V88.6464V88.6914V88.7364V88.7814V88.8263V88.8713V88.9163V88.9612V89.0062V89.0512V89.0961V89.1411V89.186V89.231V89.2759V89.3209V89.3658V89.4108V89.4557V89.5007V89.5456V89.5905V89.6355V89.6804V89.7253V89.7702V89.8152V89.8601V89.905V89.9499V89.9948V90.0397V90.0847V90.1296V90.1745V90.2194V90.2643V90.3092V90.3541V90.399V90.4439V90.4888V90.5336V90.5785V90.6234V90.6683V90.7132V90.7581V90.8029V90.8478V90.8927V90.9376V90.9824V91.0273V91.0722V91.117V91.1619V91.2067V91.2516V91.2965V91.3413V91.3862V91.431V91.4759V91.5207V91.5656V91.6104V91.6552V91.7001V91.7449V91.7898V91.8346V91.8794V91.9243V91.9691V92.0139V92.0587V92.1036V92.1484V92.1932V92.238V92.2828V92.3277V92.3725V92.4173V92.4621V92.5069V92.5517V92.5965V92.6413V92.6861V92.7309V92.7757V92.8205V92.8653V92.9101V92.9549V92.9997V93.0445V93.0893V93.1341V93.1788V93.2236V93.2684V93.3132V93.358V93.4027V93.4475V93.4923V93.5371V93.5818V93.6266V93.6714V93.7162V93.7609V93.8057V93.8505V93.8952V93.94V93.9847V94.0295V94.0743V94.119V94.1638V94.2085V94.2533V94.298V94.3428V94.3875V94.4323V94.477V94.5218V94.5665V94.6113V94.656V94.7007V94.7455V94.7902V94.835V94.8797V94.9244V94.9692V95.0139V95.0586V95.1034V95.1481V95.1928V95.2375V95.2823V95.327V95.3717V95.4164V95.4612V95.5059V95.5506V95.5953V95.6401V95.6848V95.7295V95.7742V95.8189V95.8636V95.9083V95.9531V95.9978V96.0425V96.0872V96.1319V96.1766V96.2213V96.266V96.3107V96.3554V96.4001V96.4448V96.4895V96.5342V96.5789V96.6236V96.6683V96.713V96.7577V96.8024V96.8471V96.8918V96.9365V96.9812V97.0259V97.0706V97.1153V97.16V97.2047V97.2494V97.2941V97.3388V97.3834V97.4281V97.4728V97.5175V97.5622V97.6069V97.6516V97.6962V97.7409V97.7856V97.8303V97.875V97.9197V97.9643V98.009V98.0537V98.0984V98.1431V98.1878V98.2324V98.2771V98.3218V98.3665V98.4111V98.4558V98.5005V98.5452V98.5899V98.6345V98.6792V98.7239V98.7686V98.8132V98.8579V98.9026V98.9473V98.9919V99.0366V99.0813V99.1259V99.1706V99.2153V99.26V99.3046V99.3493V99.394V99.4387V99.4833V99.528V99.5727V99.6173V99.662V99.7067V99.7514V99.796V99.8407V99.8854V99.93V99.9747V100.019V100.064V100.109V100.153V100.198V100.243V100.287V100.332V100.377V100.421V100.466V100.511V100.555V100.6V100.645V100.689V100.734V100.779V100.823V100.868V100.913V100.957V101.002V101.047V101.092V101.136V101.181V101.226V101.27V101.315V101.36V101.404V101.449V101.494V101.538V101.583V101.628V101.672V101.717V101.762V101.806V101.851V101.896V101.94V101.985V102.03V102.074V102.119V102.164V102.208V102.253V102.298V102.342V102.387V102.432V102.477V102.521V102.566V102.611V102.655V102.7V102.745V102.789V102.834V102.879V102.923V102.968V103.013V103.057V103.102V103.147V103.192V103.236V103.281V103.326V103.37V103.415V103.46V103.504V103.549V103.594V103.639V103.683V103.728V103.773V103.817V103.862V103.907V103.951V103.996V104.041V104.086V104.13V104.175V104.22V104.264V104.309V104.354V104.399V104.443V104.488V104.533V104.577V104.622V104.667V104.712V104.756V107.106H60.3202H60.3375H60.3548H60.3721H60.3894H60.4067H60.424H60.4413H60.4586H60.4759H60.4932H60.5105H60.5278H60.5451H60.5624H60.5796H60.5969H60.6142H60.6315H60.6487H60.666H60.6833H60.7006H60.7178H60.7351H60.7524H60.7696H60.7869H60.8041H60.8214H60.8387H60.8559H60.8732H60.8904H60.9077H60.9249H60.9422H60.9594H60.9767H60.9939H61.0111H61.0284H61.0456H61.0629H61.0801H61.0973H61.1146H61.1318H61.149H61.1663H61.1835H61.2007H61.2179H61.2352H61.2524H61.2696H61.2868H61.304H61.3212H61.3385H61.3557H61.3729H61.3901H61.4073H61.4245H61.4417H61.4589H61.4761H61.4933H61.5105H61.5277H61.5449H61.5621H61.5793H61.5965H61.6137H61.6309H61.6481H61.6653H61.6825H61.6997H61.7169H61.7341H61.7513H61.7684H61.7856H61.8028H61.82H61.8372H61.8544H61.8715H61.8887H61.9059H61.9231H61.9402H61.9574H61.9746H61.9918H62.0089H62.0261H62.0433H62.0605H62.0776H62.0948H62.112H62.1291H62.1463H62.1635H62.1806H62.1978H62.215H62.2321H62.2493H62.2664H62.2836H62.3008H62.3179H62.3351H62.3522H62.3694H62.3865H62.4037H62.4209H62.438H62.4552H62.4723H62.4895H62.5066H62.5238H62.5409H62.5581H62.5752H62.5924H62.6095H62.6267H62.6438H62.661H62.6781H62.6953H62.7124H62.7296H62.7467H62.7639H62.781H62.7981H62.8153H62.8324H62.8496H62.8667H62.8839H62.901H62.9181H62.9353H62.9524H62.9696H62.9867H63.0039H63.021H63.0381H63.0553H63.0724H63.0896H63.1067H63.1238H63.141H63.1581H63.1753H63.1924H63.2095H63.2267H63.2438H63.261H63.2781H63.2952H63.3124H63.3295H63.3467H63.3638H63.3809H63.3981H63.4152H63.4324H63.4495H63.4666H63.4838H63.5009H63.5181H63.5352H63.5523H63.5695H63.5866H63.6038H63.6209H63.638H63.6552H63.6723H63.6895H63.7066H63.7237H63.7409H63.758H63.7752H63.7923H63.8095H63.8266H63.8437H63.8609H63.878H63.8952H63.9123H63.9295H63.9466H63.9638H63.9809H63.9981H64.0152H64.0324H64.0495H64.0667H64.0838H64.101H64.1181H64.1353H64.1524H64.1696H64.1867H64.2039H64.221H64.2382H64.2553H64.2725H64.2896H64.3068H64.324H64.3411H64.3583H64.3754H64.3926H64.4098H64.4269H64.4441H64.4612H64.4784H64.4956H64.5127H64.5299H64.5471H64.5642H64.5814H64.5986H64.6157H64.6329H64.6501H64.6673H64.6844H64.7016H64.7188H64.736H64.7531H64.7703H64.7875H64.8047H64.8218H64.839H64.8562H64.8734H64.8906H64.9078H64.925H64.9421H64.9593H64.9765H64.9937H65.0109H65.0281H65.0453H65.0625H65.0797H65.0969H65.1141H65.1313H65.1485H65.1657H65.1829H65.2001H65.2173H65.2345H65.2517H65.2689H65.2861H65.3033H65.3205H65.3378H65.355H65.3722H65.3894H65.4066H65.4239H65.4411H65.4583H65.4755H65.4928H65.51H65.5272H65.5444H65.5617H65.5789H65.5961H65.6134H65.6306H65.6479H65.6651H65.6823H65.6996H65.7168H65.7341H65.7513H65.7686H65.7858H65.8031H65.8203H65.8376H65.8548H65.8721H65.8894H65.9066H65.9239H65.9412H65.9584H65.9757H65.993H66.0102H66.0275H66.0448H66.0621H66.0794H66.0966H66.1139H66.1312H66.1485H66.1658H66.1831H66.2004H66.2177H66.235H66.2523H66.2696H66.2869H66.3042H66.3215H66.3388H66.3561H66.3734H66.3907H66.408H66.4253H66.4427H66.46H66.4773H66.4946H66.512H66.5293H66.5466H66.564H66.5813H66.5986H66.616H66.6333H66.6507H66.668H66.6854H66.7027H66.7201H66.7374H66.7548H66.7721H66.7895H66.8069H66.8242H66.8416H66.859H66.8763H66.8937H66.9111H66.9285H66.9459H66.9632H66.9806H66.998H67.0154H67.0328H67.0502H67.0676H67.085H67.1024H67.1198H67.1372H67.1546H67.172H67.1895H67.2069H67.2243H67.2417H67.2591H67.2766H67.294H67.3114H67.3289H67.3463H67.3637H67.3812H67.3986H67.4161H67.4335H67.451H67.4685H67.4859H67.5034H67.5208H67.5383H67.5558H67.5732H67.5907H67.6082H67.6257H67.6432H67.6607H67.6781H67.6956H67.7131H67.7306H67.7481H67.7656H67.7831H67.8007H67.8182H67.8357H67.8532H67.8707H67.8882H67.9058H67.9233H67.9408H67.9584H67.9759H67.9934H68.011H68.0285H68.0461H68.0636H68.0812H68.0988H68.1163H68.1339H68.1515H68.169H68.1866H68.2042H68.2218H68.2393H68.2569H68.2745H68.2921H68.3097H68.3273H68.3449H68.3625H68.3801H68.3978H68.4154H68.433H68.4506H68.4682H68.4859H68.5035H68.5211H68.5388H68.5564H68.5741H68.5917H68.6094H68.627H68.6447H68.6623H68.68H68.6977H68.7154H68.733H68.7507H68.7684H68.7861H68.8038H68.8215H68.8392H68.8569H68.8746H68.8923H68.91H68.9277H68.9454H68.9632H68.9809H68.9986H69.0163H69.0341H69.0518H69.0696H69.0873H69.1051H69.1228H69.1406H69.1583H69.1761H71.2721L71.5108 105.024L74.1092 82.3583L74.6461 77.6747L70.5828 80.0652C70.2278 80.2741 69.8608 80.4835 69.4905 80.6949C68.6363 81.1824 67.764 81.6803 66.9768 82.2061M65.6098 82.1803L64.3189 84.144L65.6092 82.1799C65.6094 82.18 65.6096 82.1801 65.6098 82.1803ZM65.6098 82.1803C66.0135 82.4454 66.2319 82.472 66.3215 82.4728C66.402 82.4736 66.6008 82.4572 66.9768 82.2061M66.9768 82.2061C66.9767 82.2062 66.9765 82.2063 66.9763 82.2065L68.2786 84.1559L66.9768 82.2061ZM38.1853 81.4604L40.52 81.1928L40.1082 77.6004L36.9926 79.4356L38.1853 81.4604ZM38.1853 81.4604C38.5849 84.9471 38.9813 88.4028 39.3774 91.8555C39.8709 96.1581 40.3639 100.456 40.862 104.803M38.1853 81.4604C37.6606 81.7695 37.1458 82.0704 36.6386 82.3668C35.5019 83.0312 34.403 83.6735 33.315 84.3363C32.1986 85.013 31.1214 85.0329 30.0083 84.343M40.862 104.803C40.2263 104.803 39.6042 104.804 38.9913 104.806C37.6717 104.81 36.3952 104.813 35.1202 104.799M40.862 104.803L43.1967 104.535L43.4966 107.153H40.862V104.803ZM30.0083 84.343L31.2464 82.3456L31.2417 82.3427L30.0083 84.343ZM30.0083 84.343C29.326 83.9222 28.6322 83.5198 27.8967 83.0932C27.5942 82.9178 27.2847 82.7383 26.966 82.5518M26.966 82.5518L28.1533 80.5238L23.8282 77.9916L24.6477 82.936L26.966 82.5518ZM26.966 82.5518C26.9826 82.6519 26.9963 82.7372 27.0083 82.8126C27.0341 82.9744 27.0525 83.0898 27.077 83.2052M27.077 83.2052L24.7782 83.6931L24.7821 83.7113L24.7863 83.7295L27.077 83.2052ZM27.077 83.2052C27.3594 84.4391 27.6416 85.673 27.9239 86.9069C29.0544 91.8494 30.1849 96.7919 31.3238 101.734C31.3871 102.009 31.431 102.314 31.4753 102.621C31.5885 103.406 31.7037 104.204 32.1497 104.547C32.6406 104.927 33.4635 104.878 34.2679 104.83C34.56 104.813 34.8497 104.796 35.1202 104.799M35.1202 104.799L35.0895 107.149L35.0951 107.149L35.1202 104.799ZM77.1017 81.4538L78.2966 79.4303L75.1783 77.5889L74.7669 81.1869L77.1017 81.4538ZM77.1017 81.4538C77.6528 81.7792 78.1887 82.0912 78.7127 82.3964C79.7967 83.0276 80.8303 83.6295 81.8447 84.2601M77.1017 81.4538C76.4837 86.8598 75.8733 92.1856 75.2611 97.5276C74.9842 99.9441 74.7069 102.364 74.4283 104.796M81.8447 84.2601C83.0688 85.023 84.2276 85.0296 85.4354 84.2501M81.8447 84.2601L83.0853 82.2642L83.0877 82.2657L81.8447 84.2601ZM74.4283 104.796L72.0936 104.529L71.7938 107.146H74.4283V104.796ZM74.4283 104.796C75.0462 104.796 75.6568 104.797 76.2616 104.798C78.4812 104.802 80.6232 104.806 82.7652 104.756M82.7652 104.756L82.8195 107.106L82.8297 107.105L82.7652 104.756ZM82.7652 104.756C83.0068 104.75 83.3691 104.232 83.4474 103.897C84.3923 99.9019 85.3079 95.8992 86.2237 91.8955C86.3678 91.2654 86.5119 90.6353 86.6562 90.0052C87.2144 87.5705 87.7726 85.1324 88.3732 82.5053M88.3732 82.5053L90.6641 83.0291L91.8814 77.7045L87.1783 80.4818L88.3732 82.5053ZM88.3732 82.5053C88.0212 82.7132 87.6867 82.9069 87.3653 83.0931C86.6763 83.4922 86.0475 83.8565 85.4354 84.2501M85.4354 84.2501L84.1644 82.2734L84.161 82.2756L85.4354 84.2501ZM21.2504 81.2249L23.5407 80.6987L22.8225 77.5725L20.0582 79.1998L21.2504 81.2249ZM21.2504 81.2249C22.0267 84.6043 22.7983 87.9635 23.5705 91.3254C24.5969 95.7942 25.6244 100.268 26.6657 104.799M21.2504 81.2249C20.6644 81.5699 20.0923 81.9052 19.53 82.2348C18.2754 82.9703 17.07 83.6768 15.8708 84.3961M26.6657 104.799C26.0066 104.799 25.3583 104.801 24.7184 104.803C22.5795 104.809 20.5348 104.814 18.4921 104.753M26.6657 104.799L28.9561 104.273L29.617 107.149H26.6657V104.799ZM15.8708 84.3961L14.6621 82.3808L14.6596 82.3823L15.8708 84.3961ZM15.8708 84.3961C14.823 85.0263 13.8046 85.0329 12.76 84.3861C12.3221 84.1131 11.8718 83.8596 11.3648 83.5741C11.0895 83.4191 10.7975 83.2546 10.4816 83.0725M10.4816 83.0725L11.6552 81.0366L6.22449 77.906L8.25875 83.8352L10.4816 83.0725ZM10.4816 83.0725C10.6532 83.5727 10.8101 84.0315 10.9586 84.4656C11.1746 85.0968 11.3726 85.6758 11.5718 86.2536C11.5747 86.2618 11.5775 86.2701 11.5803 86.2783L11.5167 86.3803L11.5228 86.3841L11.5832 86.2866C12.0458 87.6313 12.5077 88.9761 12.9696 90.321C14.5116 94.8105 16.0536 99.2997 17.6205 103.781C17.7576 104.176 18.1852 104.743 18.4921 104.753M18.4921 104.753L18.4159 107.102L18.4216 107.102L18.4921 104.753ZM104.753 83.0825L107.004 83.7595L108.709 78.0921L103.58 81.0462L104.753 83.0825ZM104.753 83.0825C104.704 83.2465 104.661 83.3912 104.623 83.5224C104.539 83.8078 104.473 84.0297 104.397 84.2501L94.0334 81.2216C94.5373 81.5182 95.0355 81.7999 95.5257 82.077C96.5979 82.6831 97.6322 83.2678 98.6066 83.9416M104.753 83.0825C104.55 83.1998 104.363 83.3004 104.19 83.3936C103.87 83.5658 103.598 83.7124 103.356 83.8908L103.229 83.8472L101.858 82.0775L101.857 82.0783L103.229 83.8472L102.176 83.4838L102.174 83.4881L103.232 83.8506L103.297 83.935M103.297 83.935C101.724 85.1557 100.222 85.0595 98.6066 83.9416M103.297 83.935L103.232 83.8506L103.354 83.8924C103.335 83.9064 103.316 83.9206 103.297 83.935ZM98.6066 83.9416L99.9436 82.009L99.9432 82.0087L98.6066 83.9416ZM44.6954 80.07L40.6422 77.7091L41.1779 82.3691C41.5972 86.016 42.0109 89.6213 42.4219 93.2029C42.8743 97.1454 43.3234 101.059 43.773 104.968L44.0125 107.05H46.1076H46.1255H46.1433H46.1611H46.1789H46.1967H46.2145H46.2323H46.2501H46.268H46.2858H46.3035H46.3213H46.3391H46.3569H46.3747H46.3925H46.4103H46.428H46.4458H46.4636H46.4814H46.4991H46.5169H46.5346H46.5524H46.5702H46.5879H46.6057H46.6234H46.6412H46.6589H46.6766H46.6944H46.7121H46.7298H46.7476H46.7653H46.783H46.8007H46.8185H46.8362H46.8539H46.8716H46.8893H46.907H46.9247H46.9424H46.9601H46.9778H46.9955H47.0132H47.0309H47.0485H47.0662H47.0839H47.1016H47.1193H47.1369H47.1546H47.1723H47.1899H47.2076H47.2253H47.2429H47.2606H47.2782H47.2959H47.3135H47.3312H47.3488H47.3664H47.3841H47.4017H47.4193H47.437H47.4546H47.4722H47.4898H47.5075H47.5251H47.5427H47.5603H47.5779H47.5955H47.6131H47.6307H47.6483H47.6659H47.6835H47.7011H47.7187H47.7363H47.7539H47.7715H47.7891H47.8066H47.8242H47.8418H47.8594H47.8769H47.8945H47.9121H47.9296H47.9472H47.9647H47.9823H47.9999H48.0174H48.035H48.0525H48.07H48.0876H48.1051H48.1227H48.1402H48.1577H48.1753H48.1928H48.2103H48.2279H48.2454H48.2629H48.2804H48.2979H48.3154H48.333H48.3505H48.368H48.3855H48.403H48.4205H48.438H48.4555H48.473H48.4905H48.508H48.5254H48.5429H48.5604H48.5779H48.5954H48.6129H48.6303H48.6478H48.6653H48.6828H48.7002H48.7177H48.7351H48.7526H48.7701H48.7875H48.805H48.8224H48.8399H48.8573H48.8748H48.8922H48.9097H48.9271H48.9446H48.962H48.9794H48.9969H49.0143H49.0317H49.0492H49.0666H49.084H49.1014H49.1189H49.1363H49.1537H49.1711H49.1885H49.2059H49.2233H49.2407H49.2581H49.2755H49.2929H49.3103H49.3277H49.3451H49.3625H49.3799H49.3973H49.4147H49.4321H49.4495H49.4669H49.4842H49.5016H49.519H49.5364H49.5537H49.5711H49.5885H49.6059H49.6232H49.6406H49.658H49.6753H49.6927H49.71H49.7274H49.7447H49.7621H49.7794H49.7968H49.8141H49.8315H49.8488H49.8662H49.8835H49.9009H49.9182H49.9355H49.9529H49.9702H49.9875H50.0049H50.0222H50.0395H50.0568H50.0742H50.0915H50.1088H50.1261H50.1434H50.1608H50.1781H50.1954H50.2127H50.23H50.2473H50.2646H50.2819H50.2992H50.3165H50.3338H50.3511H50.3684H50.3857H50.403H50.4203H50.4376H50.4549H50.4722H50.4894H50.5067H50.524H50.5413H50.5586H50.5758H50.5931H50.6104H50.6277H50.6449H50.6622H50.6795H50.6968H50.714H50.7313H50.7486H50.7658H50.7831H50.8003H50.8176H50.8349H50.8521H50.8694H50.8866H50.9039H50.9211H50.9384H50.9556H50.9729H50.9901H51.0073H51.0246H51.0418H51.0591H51.0763H51.0935H51.1108H51.128H51.1452H51.1625H51.1797H51.1969H51.2142H51.2314H51.2486H51.2658H51.2831H51.3003H51.3175H51.3347H51.3519H51.3692H51.3864H51.4036H51.4208H51.438H51.4552H51.4724H51.4896H51.5068H51.524H51.5413H51.5585H51.5757H51.5929H51.6101H51.6273H51.6445H51.6617H51.6788H51.696H51.7132H51.7304H51.7476H51.7648H51.782H51.7992H51.8164H51.8336H51.8507H51.8679H51.8851H51.9023H51.9195H51.9366H51.9538H51.971H51.9882H52.0054H52.0225H52.0397H52.0569H52.074H52.0912H52.1084H52.1256H52.1427H52.1599H52.1771H52.1942H52.2114H52.2285H52.2457H52.2629H52.28H52.2972H52.3143H52.3315H52.3487H52.3658H52.383H52.4001H52.4173H52.4344H52.4516H52.4687H52.4859H52.503H52.5202H52.5373H52.5545H52.5716H52.5887H52.6059H52.623H52.6402H52.6573H52.6744H52.6916H52.7087H52.7259H52.743H52.7601H52.7773H52.7944H52.8115H52.8287H52.8458H52.8629H52.8801H52.8972H52.9143H52.9315H52.9486H52.9657H52.9828H53H53.0171H53.0342H53.0513H53.0685H53.0856H53.1027H53.1198H53.1369H53.1541H53.1712H53.1883H53.2054H53.2225H53.2396H53.2568H53.2739H53.291H53.3081H53.3252H53.3423H53.3594H53.3765H53.3937H53.4108H53.4279H53.445H53.4621H53.4792H53.4963H53.5134H53.5305H53.5476H53.5647H53.5818H53.5989H53.616H53.6331H53.6502H53.6674H53.6845H53.7016H53.7187H53.7358H53.7529H53.77H53.7871H53.8041H53.8212H53.8383H53.8554H53.8725H53.8896H53.9067H53.9238H53.9409H53.958H53.9751H53.9922H54.0093H54.0264H54.0435H54.0606H54.0777H54.0948H54.1118H54.1289H54.146H54.1631H54.1802H54.1973H54.2144H54.2315H54.2486H54.2656H54.2827H54.2998H54.3169H54.334H54.3511H54.3682H54.3853H54.4023H54.4194H54.4365H54.4536H54.4707H54.4878H54.5049H54.5219H54.539H54.5561H54.5732H54.5903H54.6074H54.6244H54.6415H54.6586H54.6757H54.6928H54.7098H54.7269H54.744H54.7611H54.7782H54.7953H54.8123H54.8294H54.8465H54.8636H54.8807H54.8977H54.9148H54.9319H54.949H54.9661H54.9831H57.3331V104.7V104.655V104.61V104.565V104.52V104.476V104.431V104.386V104.341V104.296V104.251V104.206V104.162V104.117V104.072V104.027V103.982V103.937V103.892V103.848V103.803V103.758V103.713V103.668V103.623V103.579V103.534V103.489V103.444V103.399V103.355V103.31V103.265V103.22V103.175V103.131V103.086V103.041V102.996V102.951V102.907V102.862V102.817V102.772V102.727V102.683V102.638V102.593V102.548V102.504V102.459V102.414V102.369V102.324V102.28V102.235V102.19V102.145V102.101V102.056V102.011V101.966V101.922V101.877V101.832V101.787V101.743V101.698V101.653V101.608V101.564V101.519V101.474V101.43V101.385V101.34V101.295V101.251V101.206V101.161V101.116V101.072V101.027V100.982V100.938V100.893V100.848V100.803V100.759V100.714V100.669V100.625V100.58V100.535V100.49V100.446V100.401V100.356V100.312V100.267V100.222V100.178V100.133V100.088V100.044V99.9988V99.9541V99.9095V99.8648V99.8201V99.7754V99.7307V99.686V99.6414V99.5967V99.552V99.5073V99.4627V99.418V99.3733V99.3286V99.284V99.2393V99.1946V99.15V99.1053V99.0606V99.016V98.9713V98.9266V98.882V98.8373V98.7926V98.748V98.7033V98.6587V98.614V98.5694V98.5247V98.48V98.4354V98.3907V98.3461V98.3014V98.2568V98.2121V98.1675V98.1228V98.0782V98.0335V97.9889V97.9442V97.8996V97.8549V97.8103V97.7657V97.721V97.6764V97.6317V97.5871V97.5424V97.4978V97.4532V97.4085V97.3639V97.3193V97.2746V97.23V97.1853V97.1407V97.0961V97.0514V97.0068V96.9622V96.9175V96.8729V96.8283V96.7836V96.739V96.6944V96.6497V96.6051V96.5605V96.5158V96.4712V96.4266V96.3819V96.3373V96.2927V96.248V96.2034V96.1588V96.1141V96.0695V96.0249V95.9803V95.9356V95.891V95.8464V95.8017V95.7571V95.7125V95.6679V95.6232V95.5786V95.534V95.4893V95.4447V95.4001V95.3555V95.3108V95.2662V95.2216V95.1769V95.1323V95.0877V95.043V94.9984V94.9538V94.9092V94.8645V94.8199V94.7753V94.7306V94.686V94.6414V94.5967V94.5521V94.5075V94.4628V94.4182V94.3736V94.3289V94.2843V94.2397V94.195V94.1504V94.1058V94.0611V94.0165V93.9719V93.9272V93.8826V93.838V93.7933V93.7487V93.704V93.6594V93.6148V93.5701V93.5255V93.4808V93.4362V93.3916V93.3469V93.3023V93.2576V93.213V93.1683V93.1237V93.079V93.0344V92.9897V92.9451V92.9004V92.8558V92.8111V92.7665V92.7218V92.6772V92.6325V92.5879V92.5432V92.4986V92.4539V92.4093V92.3646V92.3199V92.2753V92.2306V92.186V92.1413V92.0966V92.052V92.0073V91.9626V91.918V91.8733V91.8286V91.784V91.7393V91.6946V91.6499V91.6053V91.5606V91.5159V91.4712V91.4266V91.3819V91.3372V91.2925V91.2478V91.2031V91.1585V91.1138V91.0691V91.0244V90.9797V90.935V90.8903V90.8456V90.8009V90.7562V90.7115V90.6668V90.6221V90.5774V90.5327V90.488V90.4433V90.3986V90.3539V90.3092V90.2645V90.2198V90.1751V90.1303V90.0856V90.0409V89.9962V89.9515V89.9067V89.862V89.8173V89.7726V89.7278V89.6831V89.6384V89.5936V89.5489V89.5042V89.4594V89.4147V89.37V89.3252V89.2805V89.2357V89.191V89.1462V89.1015V89.0567V89.012V88.9672V88.9224V88.8777V88.8329V88.7882V88.7434V88.6986V88.6539V88.6091V88.5643V88.5195V88.4748V88.43V88.3852V88.3404V88.2956V88.2509V88.2061V88.1613V88.1165V88.0717V88.0269V87.9821V87.9373V87.8925V87.8477V87.8029V87.7581V87.7133V87.6685V87.6236V87.5788V87.534V87.4892V87.4444V87.3995V87.3547V87.3099V87.2651V87.2202V87.1754V87.1305V87.0857V87.0409V86.996V86.9512V86.9063V86.8615V86.8166V86.7718V86.7269V86.682V86.6372V86.5923V86.5474V86.5026V86.4577V86.4128V86.3679V86.3231V86.2782V86.2333V86.1884V86.1435V86.0986V86.0537V86.0088V85.9639V85.919V85.8741V85.8292V85.7843V85.7394V85.6945V85.6496V85.6046V85.5597V85.5148V85.4699V85.4249V85.38V85.3351V85.2901V85.2452V85.2002V85.1553V85.1103V85.0654V85.0204V84.9755V84.9305V84.8856V84.8406V84.7956V84.7506V84.7057V84.6607V84.6157V84.5707V84.5257V84.4807V84.4358V84.3908V84.3458V84.3008V84.2558V84.2107V84.1657V84.1207V84.0757V84.0307V83.9857V83.9406V83.8956V83.8506V83.8055V83.7605V83.7155V83.6704V83.6254V83.5803V83.5353V83.4902V83.4451V83.4001V83.355V83.3099V83.2649V83.2198V83.1747V83.1296V83.0845V83.0395V82.9944V82.9493V82.9042V82.8591V82.814V82.7688V82.7237V82.6786V82.6335V82.5884V82.5433V82.4981V82.453V82.4078V82.3627V82.3176V82.2724V82.2273V82.1821V82.137V82.0918V82.0466V82.0015V81.9563V81.9111V81.8659V81.8207V81.7756V77.6738L53.7946 79.7483C53.5343 79.9009 53.2319 80.0675 52.9069 80.2467C52.0664 80.71 51.0745 81.2567 50.2681 81.8589C49.6211 82.3405 49.2108 82.4313 48.9711 82.4339C48.7457 82.4363 48.3609 82.3651 47.7475 81.8959L47.7455 81.8944C47.0435 81.3587 46.1502 80.8713 45.4196 80.4727C45.1501 80.3257 44.9028 80.1908 44.6954 80.07Z" fill="#F4F0EF" stroke="#503A2C" stroke-width="4.7"/>
</svg>
